<mxfile host="app.diagrams.net" modified="2023-11-07T08:14:54.135Z" agent="Mozilla/5.0 (Windows NT 10.0; Win64; x64) AppleWebKit/537.36 (KHTML, like Gecko) Chrome/119.0.0.0 Safari/537.36 Edg/119.0.0.0" etag="Q1tX2iRnEMFXStiSxzUF" version="22.0.8" type="device">
  <diagram name="Sayfa -1" id="EVGxpF09j1gA-2RbMjRz">
    <mxGraphModel dx="996" dy="565" grid="1" gridSize="10" guides="1" tooltips="1" connect="1" arrows="1" fold="1" page="1" pageScale="1" pageWidth="827" pageHeight="1169" math="0" shadow="0">
      <root>
        <mxCell id="0" />
        <mxCell id="1" parent="0" />
        <mxCell id="oIalInff0dngOWjOW0hy-5" value="" style="edgeStyle=orthogonalEdgeStyle;rounded=0;orthogonalLoop=1;jettySize=auto;html=1;" edge="1" parent="1" source="oIalInff0dngOWjOW0hy-1" target="oIalInff0dngOWjOW0hy-4">
          <mxGeometry relative="1" as="geometry" />
        </mxCell>
        <mxCell id="oIalInff0dngOWjOW0hy-1" value="START" style="rounded=1;whiteSpace=wrap;html=1;arcSize=50;" vertex="1" parent="1">
          <mxGeometry x="170" y="20" width="120" height="60" as="geometry" />
        </mxCell>
        <mxCell id="oIalInff0dngOWjOW0hy-8" value="" style="edgeStyle=orthogonalEdgeStyle;rounded=0;orthogonalLoop=1;jettySize=auto;html=1;" edge="1" parent="1" source="oIalInff0dngOWjOW0hy-2" target="oIalInff0dngOWjOW0hy-7">
          <mxGeometry relative="1" as="geometry" />
        </mxCell>
        <mxCell id="oIalInff0dngOWjOW0hy-2" value="INPUT&lt;br&gt;num" style="shape=parallelogram;perimeter=parallelogramPerimeter;whiteSpace=wrap;html=1;fixedSize=1;" vertex="1" parent="1">
          <mxGeometry x="170" y="180" width="120" height="60" as="geometry" />
        </mxCell>
        <mxCell id="oIalInff0dngOWjOW0hy-6" value="" style="edgeStyle=orthogonalEdgeStyle;rounded=0;orthogonalLoop=1;jettySize=auto;html=1;" edge="1" parent="1" source="oIalInff0dngOWjOW0hy-4" target="oIalInff0dngOWjOW0hy-2">
          <mxGeometry relative="1" as="geometry" />
        </mxCell>
        <mxCell id="oIalInff0dngOWjOW0hy-4" value="fact = 1&lt;br&gt;i=0" style="rounded=0;whiteSpace=wrap;html=1;" vertex="1" parent="1">
          <mxGeometry x="170" y="100" width="120" height="60" as="geometry" />
        </mxCell>
        <mxCell id="oIalInff0dngOWjOW0hy-10" value="T" style="edgeStyle=orthogonalEdgeStyle;rounded=0;orthogonalLoop=1;jettySize=auto;html=1;" edge="1" parent="1" source="oIalInff0dngOWjOW0hy-7" target="oIalInff0dngOWjOW0hy-9">
          <mxGeometry relative="1" as="geometry" />
        </mxCell>
        <mxCell id="oIalInff0dngOWjOW0hy-15" value="F" style="edgeStyle=orthogonalEdgeStyle;rounded=0;orthogonalLoop=1;jettySize=auto;html=1;" edge="1" parent="1" source="oIalInff0dngOWjOW0hy-7" target="oIalInff0dngOWjOW0hy-14">
          <mxGeometry relative="1" as="geometry" />
        </mxCell>
        <mxCell id="oIalInff0dngOWjOW0hy-7" value="i&amp;lt;num" style="rhombus;whiteSpace=wrap;html=1;" vertex="1" parent="1">
          <mxGeometry x="190" y="310" width="80" height="80" as="geometry" />
        </mxCell>
        <mxCell id="oIalInff0dngOWjOW0hy-12" value="" style="edgeStyle=orthogonalEdgeStyle;rounded=0;orthogonalLoop=1;jettySize=auto;html=1;" edge="1" parent="1" source="oIalInff0dngOWjOW0hy-9" target="oIalInff0dngOWjOW0hy-11">
          <mxGeometry relative="1" as="geometry" />
        </mxCell>
        <mxCell id="oIalInff0dngOWjOW0hy-9" value="fact = fact * num" style="whiteSpace=wrap;html=1;" vertex="1" parent="1">
          <mxGeometry x="330" y="320" width="120" height="60" as="geometry" />
        </mxCell>
        <mxCell id="oIalInff0dngOWjOW0hy-13" style="edgeStyle=orthogonalEdgeStyle;rounded=0;orthogonalLoop=1;jettySize=auto;html=1;exitX=0.5;exitY=0;exitDx=0;exitDy=0;" edge="1" parent="1" source="oIalInff0dngOWjOW0hy-11">
          <mxGeometry relative="1" as="geometry">
            <mxPoint x="230" y="276" as="targetPoint" />
            <Array as="points">
              <mxPoint x="560" y="276" />
              <mxPoint x="371" y="276" />
            </Array>
          </mxGeometry>
        </mxCell>
        <mxCell id="oIalInff0dngOWjOW0hy-11" value="i++" style="whiteSpace=wrap;html=1;" vertex="1" parent="1">
          <mxGeometry x="500" y="320" width="120" height="60" as="geometry" />
        </mxCell>
        <mxCell id="oIalInff0dngOWjOW0hy-17" value="" style="edgeStyle=orthogonalEdgeStyle;rounded=0;orthogonalLoop=1;jettySize=auto;html=1;" edge="1" parent="1" source="oIalInff0dngOWjOW0hy-14" target="oIalInff0dngOWjOW0hy-16">
          <mxGeometry relative="1" as="geometry" />
        </mxCell>
        <mxCell id="oIalInff0dngOWjOW0hy-14" value="OUTPUT&lt;br&gt;fact" style="shape=parallelogram;perimeter=parallelogramPerimeter;whiteSpace=wrap;html=1;fixedSize=1;" vertex="1" parent="1">
          <mxGeometry x="170" y="480" width="120" height="60" as="geometry" />
        </mxCell>
        <mxCell id="oIalInff0dngOWjOW0hy-16" value="END" style="rounded=1;whiteSpace=wrap;html=1;arcSize=50;" vertex="1" parent="1">
          <mxGeometry x="170" y="585" width="120" height="60" as="geometry" />
        </mxCell>
      </root>
    </mxGraphModel>
  </diagram>
</mxfile>
